<svg xmlns="http://www.w3.org/2000/svg" viewBox="0 0 800 1000"><rect width="800" height="1000" fill="#F2ECDD"/><line x1="400.0" y1="1000" x2="400.0" y2="100.0" stroke="#2B2118" stroke-width="10"/><line x1="400.0" y1="331.3" x2="528.6" y2="283.0" stroke="#2B2118" stroke-width="5"/><ellipse cx="528.6" cy="283.0" rx="34" ry="20" fill="#5B6B4F" transform="rotate(53.1 528.6 283.0)" opacity="0.9"/><line x1="400.0" y1="826.0" x2="368.0" y2="769.2" stroke="#2B2118" stroke-width="5"/><ellipse cx="368.0" cy="769.2" rx="34" ry="20" fill="#5B6B4F" transform="rotate(-15.7 368.0 769.2)" opacity="0.9"/><line x1="400.0" y1="659.4" x2="483.6" y2="638.5" stroke="#2B2118" stroke-width="5"/><ellipse cx="483.6" cy="638.5" rx="34" ry="20" fill="#5B6B4F" transform="rotate(63.4 483.6 638.5)" opacity="0.9"/><line x1="400.0" y1="665.7" x2="330.7" y2="608.5" stroke="#2B2118" stroke-width="5"/><ellipse cx="330.7" cy="608.5" rx="34" ry="20" fill="#5B6B4F" transform="rotate(-31.2 330.7 608.5)" opacity="0.9"/><line x1="400.0" y1="321.6" x2="238.6" y2="286.2" stroke="#2B2118" stroke-width="5"/><ellipse cx="238.6" cy="286.2" rx="34" ry="20" fill="#5B6B4F" transform="rotate(-66.3 238.6 286.2)" opacity="0.9"/><line x1="400.0" y1="479.8" x2="496.9" y2="405.5" stroke="#2B2118" stroke-width="5"/><ellipse cx="496.9" cy="405.5" rx="34" ry="20" fill="#8C3A2B" transform="rotate(33.1 496.9 405.5)" opacity="0.9"/><line x1="400.0" y1="742.4" x2="261.3" y2="696.5" stroke="#2B2118" stroke-width="5"/><ellipse cx="261.3" cy="696.5" rx="34" ry="20" fill="#5B6B4F" transform="rotate(-56.5 261.3 696.5)" opacity="0.9"/><line x1="400.0" y1="768.2" x2="399.6" y2="711.1" stroke="#2B2118" stroke-width="5"/><ellipse cx="399.6" cy="711.1" rx="34" ry="20" fill="#5B6B4F" transform="rotate(-0.2 399.6 711.1)" opacity="0.9"/><line x1="400.0" y1="664.8" x2="367.8" y2="596.8" stroke="#2B2118" stroke-width="5"/><ellipse cx="367.8" cy="596.8" rx="34" ry="20" fill="#5B6B4F" transform="rotate(-13.3 367.8 596.8)" opacity="0.9"/><line x1="400.0" y1="196.0" x2="539.3" y2="153.3" stroke="#2B2118" stroke-width="5"/><ellipse cx="539.3" cy="153.3" rx="34" ry="20" fill="#5B6B4F" transform="rotate(58.5 539.3 153.3)" opacity="0.9"/></svg>