<svg xmlns="http://www.w3.org/2000/svg" viewBox="0 0 800 1000"><rect width="800" height="1000" fill="#E3DAC9"/><rect x="8.3" y="8.3" width="143.4" height="126.3" fill="#B34E2A" opacity="0.94"/><rect x="333.5" y="13.5" width="132.9" height="115.8" fill="#6F5B44" opacity="0.79"/><rect x="645.2" y="5.2" width="149.5" height="132.4" fill="#2B2118" opacity="0.90"/><rect x="11.5" y="154.4" width="136.9" height="119.8" fill="#2B2118" opacity="0.73"/><rect x="491.5" y="154.3" width="137.1" height="119.9" fill="#6F5B44" opacity="0.79"/><rect x="9.2" y="294.9" width="141.5" height="124.4" fill="#6F5B44" opacity="0.98"/><rect x="173.4" y="299.1" width="133.2" height="116.1" fill="#B34E2A" opacity="0.82"/><rect x="332.8" y="298.5" width="134.5" height="117.3" fill="#6F5B44" opacity="0.88"/><rect x="166.7" y="435.3" width="146.6" height="129.4" fill="#B34E2A" opacity="0.79"/><rect x="652.0" y="440.6" width="136.0" height="118.9" fill="#2B2118" opacity="0.81"/><rect x="328.2" y="579.7" width="143.5" height="126.4" fill="#6F5B44" opacity="0.90"/><rect x="493.0" y="584.5" width="133.9" height="116.8" fill="#B34E2A" opacity="0.87"/><rect x="4.5" y="718.8" width="151.0" height="133.9" fill="#2B2118" opacity="0.70"/><rect x="486.0" y="720.3" width="148.0" height="130.9" fill="#6F5B44" opacity="0.98"/><rect x="644.6" y="718.8" width="150.9" height="133.7" fill="#2B2118" opacity="0.92"/><rect x="327.0" y="864.2" width="145.9" height="128.8" fill="#B34E2A" opacity="0.90"/><rect x="484.2" y="861.4" width="151.5" height="134.4" fill="#6F5B44" opacity="0.71"/></svg>