<svg xmlns="http://www.w3.org/2000/svg" viewBox="0 0 800 1000"><rect width="800" height="1000" fill="#DED0B4"/><rect x="329.5" y="9.5" width="141.0" height="123.8" fill="#7A8C7E" opacity="0.82"/><rect x="489.5" y="9.5" width="141.0" height="123.9" fill="#2B2118" opacity="0.78"/><rect x="645.0" y="5.0" width="150.1" height="132.9" fill="#B34E2A" opacity="0.76"/><rect x="12.3" y="155.1" width="135.4" height="118.3" fill="#2B2118" opacity="0.75"/><rect x="169.1" y="151.9" width="141.9" height="124.7" fill="#7A8C7E" opacity="0.97"/><rect x="172.3" y="298.1" width="135.3" height="118.2" fill="#2B2118" opacity="0.78"/><rect x="332.0" y="297.7" width="136.0" height="118.9" fill="#B34E2A" opacity="0.85"/><rect x="647.7" y="293.4" width="144.6" height="127.5" fill="#7A8C7E" opacity="0.86"/><rect x="12.0" y="440.6" width="136.0" height="118.8" fill="#2B2118" opacity="0.93"/><rect x="328.2" y="436.8" width="143.6" height="126.4" fill="#B34E2A" opacity="0.80"/><rect x="489.5" y="438.1" width="141.0" height="123.8" fill="#B34E2A" opacity="0.81"/><rect x="648.2" y="436.8" width="143.6" height="126.5" fill="#2B2118" opacity="0.87"/><rect x="13.6" y="585.0" width="132.9" height="115.7" fill="#7A8C7E" opacity="0.73"/><rect x="484.4" y="575.8" width="151.2" height="134.1" fill="#B34E2A" opacity="0.72"/><rect x="653.8" y="585.2" width="132.5" height="115.3" fill="#B34E2A" opacity="0.80"/><rect x="170.7" y="725.0" width="138.7" height="121.5" fill="#7A8C7E" opacity="0.89"/><rect x="333.9" y="728.2" width="132.1" height="115.0" fill="#B34E2A" opacity="0.93"/><rect x="487.2" y="721.5" width="145.6" height="128.4" fill="#2B2118" opacity="0.71"/><rect x="645.0" y="719.3" width="150.1" height="132.9" fill="#B34E2A" opacity="0.91"/><rect x="7.8" y="864.9" width="144.5" height="127.3" fill="#7A8C7E" opacity="0.72"/><rect x="169.3" y="866.5" width="141.3" height="124.2" fill="#B34E2A" opacity="0.71"/></svg>