<svg xmlns="http://www.w3.org/2000/svg" viewBox="0 0 800 1000"><rect width="800" height="1000" fill="#EFE9DC"/><line x1="400.0" y1="1000" x2="400.0" y2="100.0" stroke="#2B2118" stroke-width="10"/><line x1="400.0" y1="544.7" x2="318.4" y2="487.1" stroke="#2B2118" stroke-width="5"/><ellipse cx="318.4" cy="487.1" rx="34" ry="20" fill="#8C3A2B" transform="rotate(-35.3 318.4 487.1)" opacity="0.9"/><line x1="400.0" y1="301.7" x2="396.5" y2="261.0" stroke="#2B2118" stroke-width="5"/><ellipse cx="396.5" cy="261.0" rx="34" ry="20" fill="#8C3A2B" transform="rotate(-2.5 396.5 261.0)" opacity="0.9"/><line x1="400.0" y1="224.0" x2="448.4" y2="154.0" stroke="#2B2118" stroke-width="5"/><ellipse cx="448.4" cy="154.0" rx="34" ry="20" fill="#8C3A2B" transform="rotate(19.1 448.4 154.0)" opacity="0.9"/><line x1="400.0" y1="565.4" x2="479.7" y2="541.6" stroke="#2B2118" stroke-width="5"/><ellipse cx="479.7" cy="541.6" rx="34" ry="20" fill="#5B6B4F" transform="rotate(59.2 479.7 541.6)" opacity="0.9"/><line x1="400.0" y1="800.8" x2="412.7" y2="745.7" stroke="#2B2118" stroke-width="5"/><ellipse cx="412.7" cy="745.7" rx="34" ry="20" fill="#8C3A2B" transform="rotate(6.6 412.7 745.7)" opacity="0.9"/><line x1="400.0" y1="720.6" x2="412.9" y2="669.2" stroke="#2B2118" stroke-width="5"/><ellipse cx="412.9" cy="669.2" rx="34" ry="20" fill="#5B6B4F" transform="rotate(7.2 412.9 669.2)" opacity="0.9"/><line x1="400.0" y1="701.1" x2="330.0" y2="629.6" stroke="#2B2118" stroke-width="5"/><ellipse cx="330.0" cy="629.6" rx="34" ry="20" fill="#8C3A2B" transform="rotate(-26.1 330.0 629.6)" opacity="0.9"/><line x1="400.0" y1="641.0" x2="378.9" y2="587.0" stroke="#2B2118" stroke-width="5"/><ellipse cx="378.9" cy="587.0" rx="34" ry="20" fill="#8C3A2B" transform="rotate(-11.1 378.9 587.0)" opacity="0.9"/><line x1="400.0" y1="416.7" x2="490.2" y2="376.6" stroke="#2B2118" stroke-width="5"/><ellipse cx="490.2" cy="376.6" rx="34" ry="20" fill="#5B6B4F" transform="rotate(48.4 490.2 376.6)" opacity="0.9"/><line x1="400.0" y1="412.2" x2="400.1" y2="337.7" stroke="#2B2118" stroke-width="5"/><ellipse cx="400.1" cy="337.7" rx="34" ry="20" fill="#8C3A2B" transform="rotate(0.0 400.1 337.7)" opacity="0.9"/></svg>