<svg xmlns="http://www.w3.org/2000/svg" viewBox="0 0 800 1000"><rect width="800" height="1000" fill="#DCE3DD"/><path d="M0,350.0 Q-66.7,350.0 0.0,385.4 Q93.3,350.0 160.0,314.6 Q253.3,350.0 320.0,385.4 Q413.3,350.0 480.0,314.6 Q573.3,350.0 640.0,385.4 Q733.3,350.0 800.0,314.6 L800,1000 L0,1000 Z" fill="#3C4A3E" opacity="0.85"/><path d="M0,470.0 Q-66.7,470.0 0.0,517.1 Q93.3,470.0 160.0,422.9 Q253.3,470.0 320.0,517.1 Q413.3,470.0 480.0,422.9 Q573.3,470.0 640.0,517.1 Q733.3,470.0 800.0,422.9 L800,1000 L0,1000 Z" fill="#7A8C7E" opacity="0.85"/><path d="M0,590.0 Q-66.7,590.0 0.0,654.1 Q93.3,590.0 160.0,525.9 Q253.3,590.0 320.0,654.1 Q413.3,590.0 480.0,525.9 Q573.3,590.0 640.0,654.1 Q733.3,590.0 800.0,525.9 L800,1000 L0,1000 Z" fill="#1F2A22" opacity="0.85"/><path d="M0,710.0 Q-66.7,710.0 0.0,758.1 Q93.3,710.0 160.0,661.9 Q253.3,710.0 320.0,758.1 Q413.3,710.0 480.0,661.9 Q573.3,710.0 640.0,758.1 Q733.3,710.0 800.0,661.9 L800,1000 L0,1000 Z" fill="#3C4A3E" opacity="0.85"/><path d="M0,830.0 Q-66.7,830.0 0.0,869.3 Q93.3,830.0 160.0,790.7 Q253.3,830.0 320.0,869.3 Q413.3,830.0 480.0,790.7 Q573.3,830.0 640.0,869.3 Q733.3,830.0 800.0,790.7 L800,1000 L0,1000 Z" fill="#7A8C7E" opacity="0.85"/></svg>