<svg xmlns="http://www.w3.org/2000/svg" viewBox="0 0 800 1000"><rect width="800" height="1000" fill="#EAE2D2"/><path d="M0,350.0 Q-66.7,350.0 0.0,387.6 Q93.3,350.0 160.0,312.4 Q253.3,350.0 320.0,387.6 Q413.3,350.0 480.0,312.4 Q573.3,350.0 640.0,387.6 Q733.3,350.0 800.0,312.4 L800,1000 L0,1000 Z" fill="#C97B4A" opacity="0.85"/><path d="M0,470.0 Q-66.7,470.0 0.0,522.4 Q93.3,470.0 160.0,417.6 Q253.3,470.0 320.0,522.4 Q413.3,470.0 480.0,417.6 Q573.3,470.0 640.0,522.4 Q733.3,470.0 800.0,417.6 L800,1000 L0,1000 Z" fill="#5B6B4F" opacity="0.85"/><path d="M0,590.0 Q-66.7,590.0 0.0,624.9 Q93.3,590.0 160.0,555.1 Q253.3,590.0 320.0,624.9 Q413.3,590.0 480.0,555.1 Q573.3,590.0 640.0,624.9 Q733.3,590.0 800.0,555.1 L800,1000 L0,1000 Z" fill="#241E17" opacity="0.85"/><path d="M0,710.0 Q-66.7,710.0 0.0,752.0 Q93.3,710.0 160.0,668.0 Q253.3,710.0 320.0,752.0 Q413.3,710.0 480.0,668.0 Q573.3,710.0 640.0,752.0 Q733.3,710.0 800.0,668.0 L800,1000 L0,1000 Z" fill="#C97B4A" opacity="0.85"/><path d="M0,830.0 Q-66.7,830.0 0.0,886.9 Q93.3,830.0 160.0,773.1 Q253.3,830.0 320.0,886.9 Q413.3,830.0 480.0,773.1 Q573.3,830.0 640.0,886.9 Q733.3,830.0 800.0,773.1 L800,1000 L0,1000 Z" fill="#5B6B4F" opacity="0.85"/></svg>